<?xml version="1.0" encoding="utf-8"?>
<!-- Generator: Adobe Illustrator 25.2.1, SVG Export Plug-In . SVG Version: 6.00 Build 0)  -->
<svg version="1.1" id="Layer_1" xmlns="http://www.w3.org/2000/svg" xmlns:xlink="http://www.w3.org/1999/xlink" x="0px" y="0px"
	 viewBox="0 0 283.5 283.5" style="enable-background:new 0 0 283.5 283.5;" xml:space="preserve">
<g>
	<path d="M17.9,143.7c0.3-1,0.6-2,0.9-2.9c2.4-7.4,8.9-12.3,17-12.8c0.9-0.1,1.8-0.1,2.7-0.1c0.3-2.8,0.4-5.5,1-8.1
		c2.6-10.9,9.4-17.9,20.4-20.6c7.3-1.8,14.6-3.3,22.1-4.9c0.3-3,0.8-5.7-2.4-8c-5-3.7-7.9-9-9.1-15.2c-0.1-0.7-0.8-1.5-1.4-1.9
		c-3.2-2-4.9-4.8-4.9-8.6c0-6.3-0.1-12.6,0-18.9C64.6,28.8,74.9,18.4,87.6,18c4.3-0.1,8.7-0.4,13,0.1c3.1,0.3,6.1,1.7,9.1,2.7
		c2.3,0.8,4.6,2,7,2.3c7.7,1,14,6.7,14.4,14.5c0.4,7.9,0.2,15.8,0.1,23.7c0,3.4-1.9,5.9-4.7,7.7c-0.7,0.5-1.4,1.3-1.6,2.1
		c-1.2,6.7-4.8,11.9-10,16c-1.4,1.1-2.4,5.1-1.5,6.5c0.3,0.4,1,0.7,1.6,0.8c6.4,1.4,12.8,2.6,19.1,4.3c4.6,1.3,8.7,2,13.1-0.9
		c2-1.3,5.1-1.3,7.7-1.5c3-0.2,6,0,8.9-0.1c3.9-0.2,7.4,0.8,10.8,2.9c1.6,1,3.6,1.5,5.4,1.7c7.6,0.9,13.3,7,13.5,14.6
		c0.1,4,0,8,0,12.3c3.1,0,6,0,8.9,0c4.9,0,9.8-0.1,14.8,0c11.1,0.2,18.9,8.1,18.9,19.2c0,7.2,0,14.4,0,21.5c0,3.1-1.3,4.7-3.6,4.7
		c-2.3,0-3.6-1.6-3.6-4.7c0-7.3,0-14.5,0-21.8c0-6.7-4.4-11.5-11-11.7c-7.7-0.2-15.5-0.1-23.2,0c-0.3,0-0.6,0.1-0.6,0.1
		c-0.9,3.7-1.4,7.3-2.5,10.7c-2.1,6.2-5.9,11.2-11.3,15c-1.3,0.9-1.8,1.8-1.7,3.4c0.1,2.2,0,4.3,0,6.8c4.3,1,8.6,1.9,12.9,2.9
		c3,0.7,6,1.3,9,2c12.7,2.8,21.4,13.4,21.6,26.5c0.1,5.8,0,11.6,0,17.4c3.9-1,6.8-5.1,6.8-9.8c0.1-7.8,0-15.6,0-23.5
		c0-0.6,0-1.3,0-1.9c0.1-2.4,1.5-4,3.6-4c2.1,0,3.6,1.5,3.6,4c0.1,2.7,0,5.3,0,8c0,5.1,0,10.2,0,15.2c0,10.7-3.9,16.4-14.1,20.3
		c0,6,0,12,0,18c0,2.3,0,4.7,0,7c0,6-2.8,9.9-8.4,12c-0.3,0.1-0.5,0.3-0.8,0.5c-33.2,0-66.4,0-99.7,0c-0.2-0.1-0.3-0.4-0.5-0.4
		c-6-2.3-8.5-6-8.6-12.3c0-3.6,0-7.2,0-10.9c0-4.4,0-8.8,0-13.4c-14.4,0-28.5,0-42.9,0c0,1,0,1.9,0,2.8c0,7.9-0.1,15.8,0.1,23.7
		c0.1,5.1-1.7,8.7-6.6,10.5c-4,0-8.1,0-12.1,0c-4.8-1.9-6.6-5.5-6.4-10.6c0.3-7.9,0.1-15.8,0.1-23.7c0-0.9,0-1.7,0-2.3
		c-0.4-0.3-0.4-0.4-0.5-0.4c-0.4-0.1-0.8-0.1-1.2-0.2c-7.6-1-12.7-5.1-15.5-12.1c-0.4-1.1-0.7-2.3-1.1-3.4
		C17.9,189.9,17.9,166.8,17.9,143.7z M46.4,127.9c3.5,0,6.8-0.1,10.2,0c2.7,0.1,4.3,1.8,3.9,4.1c-0.4,2.4-2,3.1-4.2,3.1
		c-6.1,0-12.3,0-18.4,0c-8.2,0-12.7,4.5-12.7,12.7c0,20.2,0,40.5,0,60.7c0,8.3,4.4,12.7,12.7,12.7c21.2,0,42.4,0,63.6,0
		c0.8,0,1.7-0.1,2.7-0.1c0-5.9-0.1-11.4,0-17c0-2.4,0.1-4.9,0.7-7.2c2.9-12,10.6-18.9,22.6-21.3c6.7-1.3,13.3-2.9,20.1-4.4
		c0-2.5,0.2-4.8-0.1-7.2c-0.1-1-0.7-2.3-1.5-2.9c-6.1-4.6-10.2-10.5-12.2-17.8c-0.7-2.6-1-5.4-1.5-8.3c-0.9,0-1.8,0-2.8,0
		c-18.5,0-37.1,0-55.6,0c-0.8,0-1.6,0-2.4,0c-2.1-0.2-3.6-1.6-3.6-3.5c0-1.9,1.4-3.4,3.5-3.7c0.8-0.1,1.6,0,2.4,0
		c18.6,0,37.3,0,55.9,0c0.9,0,1.9,0,3,0c0.1-7.5-0.9-14.8,3.5-21.3c-7.3-1.6-14.2-3-21.1-4.7c-1.8-0.4-2.5,0-3.2,1.6
		c-2.8,5.9-7.6,9-14,9c-6.5,0-11.3-3.2-14.2-9.2c-0.3-0.6-0.5-1.1-0.9-2c-8.1,1.9-16.3,3.3-24.2,5.8C50.2,109.9,45.2,119,46.4,127.9
		z M163,258.4c15.5,0,31,0,46.4,0c3.6,0,5.2-1.6,5.3-5.1c0-4.7,0.1-9.4,0-14c-0.4-12.8-10.4-22.9-23.1-23c-19.2-0.1-38.4-0.1-57.6,0
		c-11.2,0.1-21.1,8.9-22.3,20c-0.6,5.3-0.4,10.8-0.4,16.2c0,4.5,1.4,5.9,5.9,5.9C132.5,258.4,147.8,258.4,163,258.4z M214.4,219.4
		c0-7,0.6-13.8-0.2-20.4c-1-7.8-6.1-12.9-13.6-15.4c-2.1-0.7-4.4-0.9-6.6-1.5c-12.6-3.4-25.4-5.1-38.4-4.2c-1.9,0.1-3.9,0-5.8,0.4
		c-7.7,1.6-15.4,3.3-23.1,5.1c-8,1.9-13.4,7-14.6,14.9c-1,6.8-0.2,13.9-0.2,20.9c0.2-0.2,0.5-0.4,0.8-0.6c6.4-6.6,14.2-9.6,23.4-9.6
		c18.1,0.1,36.3,0,54.4,0c1.8,0,3.6,0.1,5.3,0.3C203.1,210.4,209.2,213.9,214.4,219.4z M186.5,126.4c-0.1,0-0.1,0-0.2,0
		c0-3.4,0-6.8,0-10.2c0-4.4-2.8-7.3-7.1-8c-2.2-0.3-4.7-0.6-6.4-1.7c-3.8-2.5-7.8-3.2-12.2-2.9c-1.8,0.1-3.5,0-5.3,0
		c-8.9,0.1-15.3,6.4-15.3,15.3c0,5.3-0.2,10.7,0.1,16c0.2,3.2,0.7,6.5,1.8,9.4c4,10.4,14.2,16.6,24.3,15.1
		c9.8-1.5,18.1-9.6,19.6-19.7C186.4,135.3,186.3,130.8,186.5,126.4z M71.5,56.2c0,1.6-0.3,3,0.1,4.2c0.3,1,1.2,2.2,2.1,2.4
		c2.7,0.5,3.6,2.1,3.8,4.7c0.7,8.8,8.8,17.6,17.6,19.1c10.1,1.8,22.2-8.2,23-18.8c0.2-3.6,0.7-3.9,4-5c0.9-0.3,1.9-1.5,2-2.3
		c0.1-1.5,1.1-3.3-1-4.5c-2.3-1.4-4.7-2.9-6.7-4.7c-4.3-3.8-4.5-3.9-9.7-1.2C95.7,55.9,84.3,59,71.5,56.2z M124.2,48.6
		c0-3.5,0.1-6.3,0-9.1c-0.2-5.2-3.3-8.4-8.5-9.2c-2.7-0.4-5.6-0.8-7.8-2.3c-3.5-2.4-7.2-3.1-11.2-2.8c-2.3,0.1-4.7,0-7,0
		c-10.8-0.1-18.1,7-18.2,17.9c0,6.3,0.1,6.4,6.4,6.8c9.8,0.7,18.5-2.5,26.9-7c5.7-3,10.8-2.2,15.4,2.3
		C121.3,46.2,122.5,47.1,124.2,48.6z M43.5,228.7c0,9.5,0,18.8,0.1,28c0,0.6,1,1.6,1.7,1.6c2,0.2,4,0,6,0.1c2.1,0.2,2.8-0.7,2.8-2.8
		c-0.1-8.4,0-16.7,0-25.1c0-0.6-0.1-1.2-0.2-1.9C50.3,228.7,47,228.7,43.5,228.7z M89.6,92.7c-0.3,4.5-0.4,8.7,3.8,11.3
		c2.9,1.8,6,1.8,8.9-0.1c4.1-2.7,4-6.8,3.5-11.2C100.4,94.7,95.1,94.6,89.6,92.7z M154.9,170.4c5.6,0,10.9,0,16.3,0c0-1.6,0-3,0-4.1
		c-5.5,0-10.9,0-16.3,0C154.9,167.4,154.9,168.8,154.9,170.4z"/>
	<path d="M223.2,18c9.9,0,19.8,0,29.7,0c7.8,0,12.7,4.8,12.7,12.7c0,9.9,0,19.8,0,29.7c0,7.7-4.9,12.5-12.5,12.6
		c-2.1,0-4.2,0.1-6.3,0c-2.5-0.2-4.2,0.8-5.7,2.8c-3.9,5.3-7.9,10.4-11.8,15.6c-1.5,2-3.5,3-6.1,2.6c-2.8-0.5-4.6-2.7-4.7-5.9
		c-0.1-3.3,0-6.6,0-9.9c-0.1-3.7-1.5-5.1-5.1-5.1c-6.6,0-13.2,0-19.8,0c-8,0-12.8-4.8-12.8-12.8c0-9.8,0-19.7,0-29.5
		c0-8,4.9-12.7,12.9-12.7C203.4,18,213.3,18,223.2,18z M225.7,83.2c0.2,0.1,0.4,0.1,0.6,0.2c3.2-4.2,6.3-8.3,9.5-12.5
		c2.6-3.5,6-5.3,10.4-5.1c2.2,0.1,4.4,0,6.5,0c4.2,0,5.7-1.5,5.7-5.7c0-9.8,0-19.5,0-29.3c0-4-1.6-5.6-5.5-5.6
		c-19.8,0-39.7,0-59.5,0c-3.8,0-5.5,1.6-5.5,5.4c0,9.8,0,19.7,0,29.5c0,4,1.6,5.5,5.6,5.6c6.8,0,13.5,0,20.3,0
		c6.9,0,11.7,4.7,11.9,11.6C225.7,79.3,225.7,81.3,225.7,83.2z"/>
</g>
</svg>
